      <svg viewBox="0 0 800 380" preserveAspectRatio="xMidYMid meet" xmlns="http://www.w3.org/2000/svg">
        <!-- Dot-grid world map (geographically positioned, equirectangular projection) -->
        <path class="map-dots" stroke="#A8B8EE" stroke-opacity="0.32" stroke-width="2.2" stroke-linecap="round" fill="none" d="M244 299h0M253 299h0M262 299h0M240 291h0M248 291h0M257 291h0M266 291h0M275 291h0M235 282h0M244 282h0M253 282h0M262 282h0M271 282h0M280 282h0M786 282h0M240 274h0M248 274h0M257 274h0M266 274h0M275 274h0M284 274h0M791 274h0M244 266h0M253 266h0M262 266h0M271 266h0M280 266h0M288 266h0M715 266h0M724 266h0M733 266h0M240 257h0M248 257h0M257 257h0M266 257h0M275 257h0M284 257h0M293 257h0M302 257h0M444 257h0M453 257h0M462 257h0M657 257h0M666 257h0M675 257h0M684 257h0M693 257h0M702 257h0M711 257h0M720 257h0M728 257h0M244 249h0M253 249h0M262 249h0M271 249h0M280 249h0M288 249h0M297 249h0M306 249h0M440 249h0M448 249h0M457 249h0M466 249h0M653 249h0M662 249h0M671 249h0M680 249h0M688 249h0M697 249h0M706 249h0M715 249h0M724 249h0M733 249h0M240 240h0M248 240h0M257 240h0M266 240h0M275 240h0M284 240h0M293 240h0M302 240h0M311 240h0M435 240h0M444 240h0M453 240h0M462 240h0M471 240h0M480 240h0M666 240h0M675 240h0M684 240h0M693 240h0M702 240h0M711 240h0M720 240h0M728 240h0M235 232h0M244 232h0M253 232h0M262 232h0M271 232h0M280 232h0M288 232h0M297 232h0M306 232h0M315 232h0M431 232h0M440 232h0M448 232h0M457 232h0M466 232h0M475 232h0M484 232h0M671 232h0M680 232h0M688 232h0M697 232h0M706 232h0M715 232h0M724 232h0M231 223h0M240 223h0M248 223h0M257 223h0M266 223h0M275 223h0M284 223h0M293 223h0M302 223h0M311 223h0M435 223h0M444 223h0M453 223h0M462 223h0M471 223h0M480 223h0M488 223h0M675 223h0M684 223h0M693 223h0M702 223h0M711 223h0M226 215h0M235 215h0M244 215h0M253 215h0M262 215h0M271 215h0M280 215h0M288 215h0M297 215h0M306 215h0M431 215h0M440 215h0M448 215h0M457 215h0M466 215h0M475 215h0M484 215h0M493 215h0M231 206h0M240 206h0M248 206h0M257 206h0M266 206h0M275 206h0M284 206h0M293 206h0M426 206h0M435 206h0M444 206h0M453 206h0M462 206h0M471 206h0M480 206h0M488 206h0M497 206h0M613 206h0M622 206h0M631 206h0M640 206h0M648 206h0M657 206h0M666 206h0M675 206h0M226 198h0M235 198h0M244 198h0M253 198h0M262 198h0M271 198h0M280 198h0M288 198h0M422 198h0M431 198h0M440 198h0M448 198h0M457 198h0M466 198h0M475 198h0M484 198h0M493 198h0M502 198h0M617 198h0M626 198h0M635 198h0M644 198h0M653 198h0M662 198h0M671 198h0M680 198h0M231 190h0M240 190h0M248 190h0M257 190h0M266 190h0M275 190h0M284 190h0M417 190h0M426 190h0M435 190h0M444 190h0M453 190h0M462 190h0M471 190h0M480 190h0M488 190h0M497 190h0M506 190h0M613 190h0M622 190h0M631 190h0M640 190h0M648 190h0M657 190h0M666 190h0M675 190h0M684 190h0M226 181h0M235 181h0M244 181h0M253 181h0M262 181h0M271 181h0M404 181h0M413 181h0M422 181h0M431 181h0M440 181h0M448 181h0M457 181h0M466 181h0M475 181h0M484 181h0M493 181h0M502 181h0M617 181h0M626 181h0M635 181h0M644 181h0M653 181h0M662 181h0M671 181h0M680 181h0M231 173h0M240 173h0M248 173h0M257 173h0M382 173h0M391 173h0M400 173h0M408 173h0M417 173h0M426 173h0M435 173h0M444 173h0M453 173h0M462 173h0M471 173h0M480 173h0M488 173h0M497 173h0M506 173h0M551 173h0M560 173h0M568 173h0M577 173h0M622 173h0M631 173h0M640 173h0M648 173h0M657 173h0M666 173h0M675 173h0M368 164h0M377 164h0M386 164h0M395 164h0M404 164h0M413 164h0M422 164h0M431 164h0M440 164h0M448 164h0M457 164h0M466 164h0M475 164h0M484 164h0M493 164h0M555 164h0M564 164h0M573 164h0M582 164h0M591 164h0M617 164h0M626 164h0M635 164h0M644 164h0M653 164h0M662 164h0M671 164h0M364 156h0M373 156h0M382 156h0M391 156h0M400 156h0M408 156h0M417 156h0M426 156h0M435 156h0M444 156h0M453 156h0M462 156h0M471 156h0M480 156h0M488 156h0M497 156h0M506 156h0M551 156h0M560 156h0M568 156h0M577 156h0M586 156h0M595 156h0M368 147h0M377 147h0M386 147h0M395 147h0M404 147h0M413 147h0M422 147h0M431 147h0M440 147h0M448 147h0M457 147h0M466 147h0M475 147h0M484 147h0M493 147h0M502 147h0M511 147h0M520 147h0M555 147h0M564 147h0M573 147h0M582 147h0M591 147h0M600 147h0M160 139h0M168 139h0M177 139h0M373 139h0M382 139h0M391 139h0M400 139h0M408 139h0M417 139h0M426 139h0M435 139h0M444 139h0M453 139h0M462 139h0M471 139h0M480 139h0M488 139h0M497 139h0M506 139h0M515 139h0M524 139h0M560 139h0M568 139h0M577 139h0M586 139h0M595 139h0M640 139h0M648 139h0M657 139h0M666 139h0M675 139h0M155 130h0M164 130h0M173 130h0M182 130h0M191 130h0M377 130h0M386 130h0M395 130h0M404 130h0M413 130h0M422 130h0M431 130h0M440 130h0M448 130h0M457 130h0M466 130h0M475 130h0M484 130h0M493 130h0M502 130h0M511 130h0M520 130h0M573 130h0M582 130h0M600 130h0M608 130h0M617 130h0M626 130h0M644 130h0M653 130h0M662 130h0M671 130h0M680 130h0M688 130h0M151 122h0M160 122h0M168 122h0M177 122h0M186 122h0M195 122h0M204 122h0M213 122h0M222 122h0M488 122h0M560 122h0M568 122h0M577 122h0M586 122h0M595 122h0M604 122h0M613 122h0M622 122h0M631 122h0M640 122h0M648 122h0M657 122h0M666 122h0M675 122h0M684 122h0M693 122h0M702 122h0M137 114h0M146 114h0M155 114h0M164 114h0M173 114h0M182 114h0M191 114h0M200 114h0M208 114h0M217 114h0M226 114h0M377 114h0M386 114h0M395 114h0M404 114h0M413 114h0M422 114h0M431 114h0M440 114h0M448 114h0M537 114h0M546 114h0M555 114h0M564 114h0M573 114h0M582 114h0M591 114h0M600 114h0M608 114h0M617 114h0M626 114h0M635 114h0M644 114h0M653 114h0M662 114h0M671 114h0M680 114h0M688 114h0M697 114h0M706 114h0M133 105h0M142 105h0M151 105h0M160 105h0M168 105h0M177 105h0M186 105h0M195 105h0M204 105h0M213 105h0M222 105h0M231 105h0M240 105h0M382 105h0M391 105h0M400 105h0M408 105h0M417 105h0M426 105h0M435 105h0M444 105h0M453 105h0M542 105h0M551 105h0M560 105h0M568 105h0M577 105h0M586 105h0M595 105h0M604 105h0M613 105h0M622 105h0M631 105h0M640 105h0M648 105h0M657 105h0M666 105h0M675 105h0M684 105h0M693 105h0M702 105h0M711 105h0M128 97h0M137 97h0M146 97h0M155 97h0M164 97h0M173 97h0M182 97h0M191 97h0M200 97h0M208 97h0M217 97h0M226 97h0M235 97h0M244 97h0M386 97h0M395 97h0M404 97h0M413 97h0M422 97h0M431 97h0M440 97h0M448 97h0M457 97h0M466 97h0M537 97h0M546 97h0M555 97h0M564 97h0M573 97h0M582 97h0M591 97h0M600 97h0M608 97h0M617 97h0M626 97h0M635 97h0M644 97h0M653 97h0M662 97h0M671 97h0M680 97h0M688 97h0M706 97h0M124 88h0M133 88h0M142 88h0M151 88h0M160 88h0M168 88h0M177 88h0M186 88h0M195 88h0M204 88h0M213 88h0M222 88h0M231 88h0M240 88h0M248 88h0M257 88h0M391 88h0M400 88h0M408 88h0M417 88h0M426 88h0M435 88h0M444 88h0M453 88h0M462 88h0M471 88h0M480 88h0M488 88h0M568 88h0M577 88h0M586 88h0M595 88h0M604 88h0M613 88h0M622 88h0M631 88h0M640 88h0M648 88h0M657 88h0M666 88h0M675 88h0M684 88h0M120 80h0M128 80h0M137 80h0M146 80h0M155 80h0M164 80h0M173 80h0M182 80h0M191 80h0M200 80h0M208 80h0M217 80h0M226 80h0M235 80h0M244 80h0M253 80h0M262 80h0M271 80h0M395 80h0M404 80h0M413 80h0M422 80h0M431 80h0M440 80h0M448 80h0M457 80h0M466 80h0M475 80h0M484 80h0M493 80h0M502 80h0M511 80h0M106 71h0M115 71h0M124 71h0M133 71h0M142 71h0M151 71h0M160 71h0M168 71h0M177 71h0M186 71h0M195 71h0M204 71h0M213 71h0M222 71h0M231 71h0M240 71h0M248 71h0M257 71h0M266 71h0M275 71h0M400 71h0M408 71h0M417 71h0M426 71h0M435 71h0M444 71h0M453 71h0M462 71h0M471 71h0M480 71h0M488 71h0M497 71h0M506 71h0M515 71h0M524 71h0M533 71h0M542 71h0M75 63h0M84 63h0M93 63h0M102 63h0M111 63h0M120 63h0M128 63h0M137 63h0M146 63h0M155 63h0M164 63h0M173 63h0M182 63h0M191 63h0M200 63h0M208 63h0M217 63h0M226 63h0M235 63h0M244 63h0M253 63h0M262 63h0M271 63h0M280 63h0M288 63h0M297 63h0M306 63h0M315 63h0M324 63h0M413 63h0M422 63h0M431 63h0M440 63h0M448 63h0M457 63h0M466 63h0M475 63h0M484 63h0M493 63h0M502 63h0M511 63h0M520 63h0M528 63h0M537 63h0M546 63h0M555 63h0M564 63h0M573 63h0M582 63h0M591 63h0M35 54h0M44 54h0M53 54h0M62 54h0M71 54h0M80 54h0M88 54h0M97 54h0M106 54h0M115 54h0M124 54h0M133 54h0M142 54h0M151 54h0M160 54h0M168 54h0M177 54h0M186 54h0M195 54h0M204 54h0M213 54h0M222 54h0M231 54h0M240 54h0M248 54h0M257 54h0M266 54h0M275 54h0M284 54h0M293 54h0M302 54h0M311 54h0M320 54h0M328 54h0M337 54h0M426 54h0M435 54h0M444 54h0M453 54h0M462 54h0M471 54h0M480 54h0M488 54h0M497 54h0M506 54h0M515 54h0M524 54h0M533 54h0M542 54h0M551 54h0M560 54h0M568 54h0M577 54h0M586 54h0M595 54h0M604 54h0M613 54h0M622 54h0M631 54h0M640 54h0M648 54h0M657 54h0M666 54h0M40 46h0M48 46h0M57 46h0M66 46h0M75 46h0M84 46h0M93 46h0M102 46h0M111 46h0M120 46h0M128 46h0M137 46h0M146 46h0M155 46h0M164 46h0M173 46h0M182 46h0M191 46h0M200 46h0M208 46h0M217 46h0M226 46h0M235 46h0M244 46h0M253 46h0M262 46h0M271 46h0M280 46h0M288 46h0M297 46h0M306 46h0M315 46h0M324 46h0M333 46h0M342 46h0M440 46h0M448 46h0M457 46h0M466 46h0M520 46h0M528 46h0M537 46h0M546 46h0M555 46h0M564 46h0M573 46h0M582 46h0M591 46h0M600 46h0M608 46h0M617 46h0M626 46h0M635 46h0M644 46h0M653 46h0M662 46h0M671 46h0M680 46h0M688 46h0M697 46h0M706 46h0M715 46h0M724 46h0M733 46h0M742 46h0M751 46h0M760 46h0M151 38h0M160 38h0M168 38h0M177 38h0M186 38h0M195 38h0M204 38h0M213 38h0M222 38h0M231 38h0M240 38h0M248 38h0M257 38h0M266 38h0M275 38h0M284 38h0M293 38h0M302 38h0M311 38h0M320 38h0M328 38h0M337 38h0M346 38h0M551 38h0M560 38h0M568 38h0M577 38h0M586 38h0M595 38h0M604 38h0M613 38h0M622 38h0M631 38h0M640 38h0M648 38h0M657 38h0M666 38h0M675 38h0M684 38h0M693 38h0M702 38h0M711 38h0M720 38h0M728 38h0M737 38h0M746 38h0M755 38h0M764 38h0M773 38h0M782 38h0"/>

        <!-- Connection arcs from Türkiye outward (drawn last among lines, on top of dots) -->
        <g class="map-arcs" stroke="#3B82F6" fill="none" stroke-width="1.4" stroke-dasharray="3 5" opacity="0.7">
          <!-- TR (473,106) → Europe (419,84) -->
          <path d="M 473 106 Q 446 80 419 84"/>
          <!-- TR (473,106) → US (205,102) -->
          <path d="M 473 106 Q 340 40 205 102"/>
          <!-- TR (473,106) → Global SE Asia (631,187) -->
          <path d="M 473 106 Q 560 130 631 187"/>
        </g>

        <!-- Region pins -->
        <!-- Türkiye — NOW, animated pulse -->
        <g class="pin pin-now">
          <circle cx="473" cy="106" r="18" fill="#1041DB" opacity="0.20">
            <animate attributeName="r" values="18;30;18" dur="2.4s" repeatCount="indefinite"/>
            <animate attributeName="opacity" values="0.4;0;0.4" dur="2.4s" repeatCount="indefinite"/>
          </circle>
          <circle cx="473" cy="106" r="10" fill="#1041DB" stroke="#fff" stroke-width="2.5"/>
          <text x="473" y="86" text-anchor="middle" fill="#fff" font-family="Inter" font-weight="700" font-size="13" letter-spacing="-0.2">Türkiye</text>
          <text x="473" y="138" text-anchor="middle" fill="#A8B8EE" font-family="Inter" font-weight="700" font-size="10" letter-spacing="0.14em">NOW · Q3 2026</text>
        </g>

        <!-- Europe -->
        <g class="pin">
          <circle cx="419" cy="84" r="7" fill="#3B82F6" stroke="#fff" stroke-width="2"/>
          <text x="419" y="68" text-anchor="middle" fill="#fff" font-family="Inter" font-weight="700" font-size="12" letter-spacing="-0.2">Europe</text>
          <text x="419" y="55" text-anchor="middle" fill="#A8B8EE" font-family="Inter" font-weight="700" font-size="10" letter-spacing="0.12em">Q4 2026</text>
        </g>

        <!-- United States -->
        <g class="pin">
          <circle cx="205" cy="102" r="7" fill="#3B82F6" stroke="#fff" stroke-width="2"/>
          <text x="205" y="86" text-anchor="middle" fill="#fff" font-family="Inter" font-weight="700" font-size="12" letter-spacing="-0.2">United States</text>
          <text x="205" y="73" text-anchor="middle" fill="#A8B8EE" font-family="Inter" font-weight="700" font-size="10" letter-spacing="0.12em">Q1 2027</text>
        </g>

        <!-- Global — three smaller dots representing SWIFT-first regions -->
        <g class="pin pin-global">
          <circle cx="631" cy="187" r="6" fill="#A8B8EE" stroke="#fff" stroke-width="1.8" opacity="0.85"/>
          <circle cx="271" cy="239" r="6" fill="#A8B8EE" stroke="#fff" stroke-width="1.8" opacity="0.85"/>
          <circle cx="467" cy="192" r="6" fill="#A8B8EE" stroke="#fff" stroke-width="1.8" opacity="0.85"/>
          <text x="631" y="173" text-anchor="middle" fill="#fff" font-family="Inter" font-weight="700" font-size="11" letter-spacing="-0.2">Global · 2027+</text>
        </g>

        <!-- Live now badge below the Türkiye pin -->
        <g transform="translate(473, 152)">
          <rect x="-46" y="0" width="92" height="22" rx="11" fill="#10B981" opacity="0.18"/>
          <circle cx="-32" cy="11" r="3" fill="#10B981">
            <animate attributeName="opacity" values="1;0.3;1" dur="1.6s" repeatCount="indefinite"/>
          </circle>
          <text x="-22" y="15" fill="#10B981" font-family="Inter" font-weight="700" font-size="10" letter-spacing="0.14em">LIVE NOW</text>
        </g>
      </svg>
